<?xml version="1.0" encoding="UTF-8" standalone="no"?>
<!-- Created with Inkscape (http://www.inkscape.org/) -->

<svg
   xmlns:dc="http://purl.org/dc/elements/1.1/"
   xmlns:cc="http://creativecommons.org/ns#"
   xmlns:rdf="http://www.w3.org/1999/02/22-rdf-syntax-ns#"
   xmlns:svg="http://www.w3.org/2000/svg"
   xmlns="http://www.w3.org/2000/svg"
   version="1.1"
   width="893.62201"
   height="369.92126"
   id="svg10444">
  <defs
     id="defs10446">
    <clipPath
       id="clipPath9828">
      <path
         d="m 0,0 1152,0 0,648 L 0,648 0,0 z"
         id="path9830" />
    </clipPath>
    <clipPath
       id="clipPath9686">
      <path
         d="m 0,0 1152,0 0,648 L 0,648 0,0 z"
         id="path9688" />
    </clipPath>
  </defs>
  <metadata
     id="metadata10449">
    <rdf:RDF>
      <cc:Work
         rdf:about="">
        <dc:format>image/svg+xml</dc:format>
        <dc:type
           rdf:resource="http://purl.org/dc/dcmitype/StillImage" />
        <dc:title></dc:title>
      </cc:Work>
    </rdf:RDF>
  </metadata>
  <g
     transform="translate(77.070227,-357.98356)"
     id="layer1">
    <g
       transform="matrix(5.5484288,0,0,5.5484288,781.90976,141.44776)"
       id="g10625">
      <g
         transform="matrix(1.25,0,0,-1.25,-619.4624,120.05806)"
         id="g9682">
        <g
           clip-path="url(#clipPath9686)"
           id="g9684">
          <g
             transform="translate(424.6924,53.1799)"
             id="g9690">
            <path
               d="M 0,0 5.09,1.402 C 4.632,2.59 3.747,4.663 2.256,4.663 c -1.952,0 -2.53,-3.261 -2.469,-4.724 L 0,0 z M 8.594,-5.974 C 6.979,-7.468 4.845,-8.29 2.653,-8.29 c -4.055,0 -6.16,2.956 -6.16,6.734 0,3.811 2.286,7.224 6.372,7.224 2.896,0 4.48,-1.951 5.607,-4.389 l -8.655,-2.284 c 0.153,-2.866 1.219,-5.672 4.54,-5.672 1.464,0 2.653,0.52 3.781,1.404 l 0.456,-0.701 z"
               id="path9692"
               style="fill:#592C88;fill-opacity:1;fill-rule:nonzero;stroke:none" />
          </g>
          <g
             transform="translate(424.6924,53.1799)"
             id="g9694">
            <path
               d="M 0,0 5.09,1.402 C 4.632,2.59 3.747,4.663 2.256,4.663 c -1.952,0 -2.53,-3.261 -2.469,-4.724 L 0,0 z M 8.594,-5.974 C 6.979,-7.468 4.845,-8.29 2.653,-8.29 c -4.055,0 -6.16,2.956 -6.16,6.734 0,3.811 2.286,7.224 6.372,7.224 2.896,0 4.48,-1.951 5.607,-4.389 l -8.655,-2.284 c 0.153,-2.866 1.219,-5.672 4.54,-5.672 1.464,0 2.653,0.52 3.781,1.404 l 0.456,-0.701 z"
               id="path9696"
               style="fill:none;stroke:#592C88;stroke-width:0.292;stroke-linecap:butt;stroke-linejoin:miter;stroke-miterlimit:4;stroke-opacity:1;stroke-dasharray:none" />
          </g>
          <g
             transform="translate(444.4546,56.0139)"
             id="g9698">
            <path
               d="m 0,0 c 0,-0.212 -0.15,-0.365 -0.365,-0.365 -0.275,0 -0.365,0.214 -0.457,0.428 -0.518,1.188 -2.135,1.583 -3.29,1.583 -1.13,0 -2.776,-0.518 -2.776,-1.919 0,-2.867 7.864,-1.31 7.864,-6.187 0,-3.444 -3.749,-4.663 -6.583,-4.663 -1.281,0 -2.621,0.183 -3.84,0.609 l -0.427,2.376 c -0.062,0.397 0.09,0.672 0.456,0.672 0.367,0 0.428,-0.244 0.549,-0.64 0.365,-1.312 2.255,-1.829 3.596,-1.829 1.433,0 3.506,0.548 3.506,2.317 0,3.016 -7.865,1.28 -7.865,6.186 0,2.286 2.287,4.267 5.792,4.267 1.22,0 2.53,-0.182 3.627,-0.701 L 0,0 z"
               id="path9700"
               style="fill:#592C88;fill-opacity:1;fill-rule:nonzero;stroke:none" />
          </g>
          <g
             transform="translate(444.4546,56.0139)"
             id="g9702">
            <path
               d="m 0,0 c 0,-0.212 -0.15,-0.365 -0.365,-0.365 -0.275,0 -0.365,0.214 -0.457,0.428 -0.518,1.188 -2.135,1.583 -3.29,1.583 -1.13,0 -2.776,-0.518 -2.776,-1.919 0,-2.867 7.864,-1.31 7.864,-6.187 0,-3.444 -3.749,-4.663 -6.583,-4.663 -1.281,0 -2.621,0.183 -3.84,0.609 l -0.427,2.376 c -0.062,0.397 0.09,0.672 0.456,0.672 0.367,0 0.428,-0.244 0.549,-0.64 0.365,-1.312 2.255,-1.829 3.596,-1.829 1.433,0 3.506,0.548 3.506,2.317 0,3.016 -7.865,1.28 -7.865,6.186 0,2.286 2.287,4.267 5.792,4.267 1.22,0 2.53,-0.182 3.627,-0.701 L 0,0 z"
               id="path9704"
               style="fill:none;stroke:#592C88;stroke-width:0.292;stroke-linecap:butt;stroke-linejoin:miter;stroke-miterlimit:4;stroke-opacity:1;stroke-dasharray:none" />
          </g>
          <g
             transform="translate(455.1059,46.018)"
             id="g9706">
            <path
               d="m 0,0 c -1.128,-0.701 -2.712,-1.127 -4.023,-1.127 -2.532,0 -3.292,1.096 -3.292,3.505 l 0,9.051 -1.067,0 c -0.304,0 -0.579,0.031 -0.579,0.335 0,0.244 0.579,0.671 4.237,3.87 l 0.61,0 0,-3.29 3.08,0 C -1.097,11.429 -1.25,11.429 -1.705,11.429 l -2.409,0 0,-8.198 c 0,-1.739 0.152,-2.927 1.89,-2.927 0.609,0 1.278,0.183 1.827,0.427 L 0,0 z"
               id="path9708"
               style="fill:#592C88;fill-opacity:1;fill-rule:nonzero;stroke:none" />
          </g>
          <g
             transform="translate(455.1059,46.018)"
             id="g9710">
            <path
               d="m 0,0 c -1.128,-0.701 -2.712,-1.127 -4.023,-1.127 -2.532,0 -3.292,1.096 -3.292,3.505 l 0,9.051 -1.067,0 c -0.304,0 -0.579,0.031 -0.579,0.335 0,0.244 0.579,0.671 4.237,3.87 l 0.61,0 0,-3.29 3.08,0 C -1.097,11.429 -1.25,11.429 -1.705,11.429 l -2.409,0 0,-8.198 c 0,-1.739 0.152,-2.927 1.89,-2.927 0.609,0 1.278,0.183 1.827,0.427 L 0,0 z"
               id="path9712"
               style="fill:none;stroke:#592C88;stroke-width:0.292;stroke-linecap:butt;stroke-linejoin:miter;stroke-miterlimit:4;stroke-opacity:1;stroke-dasharray:none" />
          </g>
          <g
             transform="translate(459.0823,53.1799)"
             id="g9714">
            <path
               d="M 0,0 5.09,1.402 C 4.632,2.59 3.75,4.663 2.254,4.663 0.303,4.663 -0.275,1.402 -0.214,-0.061 L 0,0 z M 8.593,-5.974 C 6.978,-7.468 4.846,-8.29 2.652,-8.29 c -4.053,0 -6.158,2.956 -6.158,6.734 0,3.811 2.285,7.224 6.369,7.224 2.897,0 4.482,-1.951 5.61,-4.389 l -8.655,-2.284 c 0.151,-2.866 1.218,-5.672 4.541,-5.672 1.461,0 2.65,0.52 3.777,1.404 l 0.457,-0.701 z"
               id="path9716"
               style="fill:#592C88;fill-opacity:1;fill-rule:nonzero;stroke:none" />
          </g>
          <g
             transform="translate(459.0823,53.1799)"
             id="g9718">
            <path
               d="M 0,0 5.09,1.402 C 4.632,2.59 3.75,4.663 2.254,4.663 0.303,4.663 -0.275,1.402 -0.214,-0.061 L 0,0 z M 8.593,-5.974 C 6.978,-7.468 4.846,-8.29 2.652,-8.29 c -4.053,0 -6.158,2.956 -6.158,6.734 0,3.811 2.285,7.224 6.369,7.224 2.897,0 4.482,-1.951 5.61,-4.389 l -8.655,-2.284 c 0.151,-2.866 1.218,-5.672 4.541,-5.672 1.461,0 2.65,0.52 3.777,1.404 l 0.457,-0.701 z"
               id="path9720"
               style="fill:none;stroke:#592C88;stroke-width:0.292;stroke-linecap:butt;stroke-linejoin:miter;stroke-miterlimit:4;stroke-opacity:1;stroke-dasharray:none" />
          </g>
          <g
             transform="translate(474.5725,56.1051)"
             id="g9722">
            <path
               d="M 0,0 C 1.525,1.617 2.438,2.744 3.962,2.744 4.51,2.744 5.058,2.5 5.455,2.104 L 5.09,0.122 C 4.998,-0.456 4.938,-0.669 4.633,-0.669 4.023,-0.669 4.42,0.366 2.835,0.366 1.676,0.366 0.791,-0.335 0,-1.096 l 0,-4.481 c 0,-3.534 0.121,-4.235 0.975,-4.235 l 1.585,0 0,-0.917 -7.407,0 0,0.917 1.098,0 c 0.335,0 0.547,0.029 0.547,0.487 l 0,6.218 c 0,3.077 0,4.418 -1.035,4.418 l -1.281,0 0,0.916 C -3.688,2.379 -1.83,2.5 0,2.744 L 0,0 z"
               id="path9724"
               style="fill:#592C88;fill-opacity:1;fill-rule:nonzero;stroke:none" />
          </g>
          <g
             transform="translate(474.5725,56.1051)"
             id="g9726">
            <path
               d="M 0,0 C 1.525,1.617 2.438,2.744 3.962,2.744 4.51,2.744 5.058,2.5 5.455,2.104 L 5.09,0.122 C 4.998,-0.456 4.938,-0.669 4.633,-0.669 4.023,-0.669 4.42,0.366 2.835,0.366 1.676,0.366 0.791,-0.335 0,-1.096 l 0,-4.481 c 0,-3.534 0.121,-4.235 0.975,-4.235 l 1.585,0 0,-0.917 -7.407,0 0,0.917 1.098,0 c 0.335,0 0.547,0.029 0.547,0.487 l 0,6.218 c 0,3.077 0,4.418 -1.035,4.418 l -1.281,0 0,0.916 C -3.688,2.379 -1.83,2.5 0,2.744 L 0,0 z"
               id="path9728"
               style="fill:none;stroke:#592C88;stroke-width:0.292;stroke-linecap:butt;stroke-linejoin:miter;stroke-miterlimit:4;stroke-opacity:1;stroke-dasharray:none" />
          </g>
          <g
             transform="translate(487.0989,56.6549)"
             id="g9730">
            <path
               d="m 0,0 c 1.646,1.218 3.14,2.194 4.786,2.194 2.408,0 3.687,-1.432 3.687,-4.206 l 0,-4.115 c 0,-3.534 0.123,-4.237 0.976,-4.237 l 1.159,0 0,-0.915 -6.736,0 0,0.915 0.852,0 c 0.337,0 0.55,0.031 0.55,0.489 l 0,6.339 c 0,2.073 0,3.809 -2.257,3.809 C 1.952,0.273 0.884,-0.306 0,-1.128 l 0,-4.999 c 0,-3.534 0.121,-4.237 0.977,-4.237 l 1.066,0 0,-0.915 -6.888,0 0,0.915 1.096,0 c 0.335,0 0.55,0.031 0.55,0.489 l 0,6.218 c 0,3.077 0,4.419 -1.037,4.419 l -1.279,0 0,0.914 C -3.687,1.829 -1.827,1.95 0,2.194 L 0,0 z"
               id="path9732"
               style="fill:#592C88;fill-opacity:1;fill-rule:nonzero;stroke:none" />
          </g>
          <g
             transform="translate(487.0989,56.6549)"
             id="g9734">
            <path
               d="m 0,0 c 1.646,1.218 3.14,2.194 4.786,2.194 2.408,0 3.687,-1.432 3.687,-4.206 l 0,-4.115 c 0,-3.534 0.123,-4.237 0.976,-4.237 l 1.159,0 0,-0.915 -6.736,0 0,0.915 0.852,0 c 0.337,0 0.55,0.031 0.55,0.489 l 0,6.339 c 0,2.073 0,3.809 -2.257,3.809 C 1.952,0.273 0.884,-0.306 0,-1.128 l 0,-4.999 c 0,-3.534 0.121,-4.237 0.977,-4.237 l 1.066,0 0,-0.915 -6.888,0 0,0.915 1.096,0 c 0.335,0 0.55,0.031 0.55,0.489 l 0,6.218 c 0,3.077 0,4.419 -1.037,4.419 l -1.279,0 0,0.914 C -3.687,1.829 -1.827,1.95 0,2.194 L 0,0 z"
               id="path9736"
               style="fill:none;stroke:#592C88;stroke-width:0.292;stroke-linecap:butt;stroke-linejoin:miter;stroke-miterlimit:4;stroke-opacity:1;stroke-dasharray:none" />
          </g>
          <g
             transform="translate(422.2884,30.0433)"
             id="g9738">
            <path
               d="m 0,0 -0.548,-0.213 c -1.767,-0.701 -3.751,-1.86 -3.751,-3.688 0,-0.913 0.49,-1.614 1.464,-1.614 1.098,0 2.104,0.701 2.835,1.493 L 0,0 z M 0,1.096 0,1.98 c 0,1.921 -0.06,3.08 -2.073,3.08 -0.701,0 -1.493,-0.214 -2.073,-0.61 0,-1.677 -0.731,-3.047 -2.071,-3.047 -0.549,0 -1.068,0.396 -1.068,0.975 0,2.408 4.086,3.931 6.797,3.931 3.383,0 3.687,-0.945 3.687,-4.267 l 0,-4.694 c 0,-2.378 0.366,-2.894 2.134,-3.198 L 4.146,-7.649 c -0.794,0 -2.957,0.09 -3.903,2.498 -1.25,-1.006 -3.17,-2.498 -4.876,-2.498 -1.767,0 -2.863,1.247 -2.863,2.985 0,2.958 3.715,4.207 5.941,5.121 L 0,1.096 z"
               id="path9740"
               style="fill:#592C88;fill-opacity:1;fill-rule:nonzero;stroke:none" />
          </g>
          <g
             transform="translate(422.2884,30.0433)"
             id="g9742">
            <path
               d="m 0,0 -0.548,-0.213 c -1.767,-0.701 -3.751,-1.86 -3.751,-3.688 0,-0.913 0.49,-1.614 1.464,-1.614 1.098,0 2.104,0.701 2.835,1.493 L 0,0 z M 0,1.096 0,1.98 c 0,1.921 -0.06,3.08 -2.073,3.08 -0.701,0 -1.493,-0.214 -2.073,-0.61 0,-1.677 -0.731,-3.047 -2.071,-3.047 -0.549,0 -1.068,0.396 -1.068,0.975 0,2.408 4.086,3.931 6.797,3.931 3.383,0 3.687,-0.945 3.687,-4.267 l 0,-4.694 c 0,-2.378 0.366,-2.894 2.134,-3.198 L 4.146,-7.649 c -0.794,0 -2.957,0.09 -3.903,2.498 -1.25,-1.006 -3.17,-2.498 -4.876,-2.498 -1.767,0 -2.863,1.247 -2.863,2.985 0,2.958 3.715,4.207 5.941,5.121 L 0,1.096 z"
               id="path9744"
               style="fill:none;stroke:#592C88;stroke-width:0.292;stroke-linecap:butt;stroke-linejoin:miter;stroke-miterlimit:4;stroke-opacity:1;stroke-dasharray:none" />
          </g>
          <g
             transform="translate(433.5485,33.6106)"
             id="g9746">
            <path
               d="m 0,0 c 1.525,1.615 2.438,2.742 3.962,2.742 0.551,0 1.098,-0.244 1.494,-0.64 L 5.089,0.121 C 4.998,-0.459 4.938,-0.672 4.633,-0.672 4.023,-0.672 4.42,0.365 2.835,0.365 1.676,0.365 0.792,-0.336 0,-1.099 l 0,-4.478 c 0,-3.537 0.123,-4.238 0.975,-4.238 l 1.587,0 0,-0.914 -7.408,0 0,0.914 1.098,0 c 0.336,0 0.548,0.031 0.548,0.488 l 0,6.217 c 0,3.079 0,4.419 -1.036,4.419 l -1.281,0 0,0.914 C -3.686,2.377 -1.829,2.498 0,2.742 L 0,0 z"
               id="path9748"
               style="fill:#592C88;fill-opacity:1;fill-rule:nonzero;stroke:none" />
          </g>
          <g
             transform="translate(433.5485,33.6106)"
             id="g9750">
            <path
               d="m 0,0 c 1.525,1.615 2.438,2.742 3.962,2.742 0.551,0 1.098,-0.244 1.494,-0.64 L 5.089,0.121 C 4.998,-0.459 4.938,-0.672 4.633,-0.672 4.023,-0.672 4.42,0.365 2.835,0.365 1.676,0.365 0.792,-0.336 0,-1.099 l 0,-4.478 c 0,-3.537 0.123,-4.238 0.975,-4.238 l 1.587,0 0,-0.914 -7.408,0 0,0.914 1.098,0 c 0.336,0 0.548,0.031 0.548,0.488 l 0,6.217 c 0,3.079 0,4.419 -1.036,4.419 l -1.281,0 0,0.914 C -3.686,2.377 -1.829,2.498 0,2.742 L 0,0 z"
               id="path9752"
               style="fill:none;stroke:#592C88;stroke-width:0.292;stroke-linecap:butt;stroke-linejoin:miter;stroke-miterlimit:4;stroke-opacity:1;stroke-dasharray:none" />
          </g>
          <g
             transform="translate(446.4435,23.3981)"
             id="g9754">
            <path
               d="m 0,0 c 2.62,0 3.016,2.836 3.016,4.847 0,2.408 -0.7,7.102 -3.961,7.102 -2.622,0 -3.019,-2.865 -3.019,-4.875 C -3.964,4.665 -3.261,0 0,0 m 6.339,6.31 c 0,-4.176 -3.079,-7.314 -7.163,-7.314 -3.962,0 -6.462,2.591 -6.462,6.644 0,4.175 3.08,7.314 7.164,7.314 3.962,0 6.461,-2.591 6.461,-6.644"
               id="path9756"
               style="fill:#592C88;fill-opacity:1;fill-rule:nonzero;stroke:#492f92;stroke-width:0.292;stroke-linecap:butt;stroke-linejoin:miter;stroke-miterlimit:4;stroke-opacity:1;stroke-dasharray:none" />
          </g>
          <g
             transform="translate(458.0264,28.0336)"
             id="g9758">
            <path
               d="m 0,0 c 0,-3.537 0.123,-4.238 0.976,-4.238 l 1.341,0 0,-0.914 -7.163,0 0,0.914 1.097,0 c 0.335,0 0.546,0.031 0.546,0.488 l 0,11.895 c 0,4.787 -0.271,5.61 -1.003,5.61 l -1.281,0 0,0.913 c 1.829,0.184 3.673,0.815 5.487,1.429 L 0,0 z"
               id="path9760"
               style="fill:#592C88;fill-opacity:1;fill-rule:nonzero;stroke:none" />
          </g>
          <g
             transform="translate(458.0264,28.0336)"
             id="g9762">
            <path
               d="m 0,0 c 0,-3.537 0.123,-4.238 0.976,-4.238 l 1.341,0 0,-0.914 -7.163,0 0,0.914 1.097,0 c 0.335,0 0.546,0.031 0.546,0.488 l 0,11.895 c 0,4.787 -0.271,5.61 -1.003,5.61 l -1.281,0 0,0.913 c 1.829,0.184 3.673,0.815 5.487,1.429 L 0,0 z"
               id="path9764"
               style="fill:none;stroke:#592C88;stroke-width:0.292;stroke-linecap:butt;stroke-linejoin:miter;stroke-miterlimit:4;stroke-opacity:1;stroke-dasharray:none" />
          </g>
          <g
             transform="translate(463.367,39.654)"
             id="g9766">
            <path
               d="M 0,0 C 0,0.946 0.762,1.645 1.676,1.645 2.622,1.645 3.382,0.946 3.382,0 3.382,-0.974 2.622,-1.645 1.676,-1.645 0.762,-1.645 0,-0.944 0,0 m 3.534,-11.62 c 0,-3.537 0.122,-4.239 0.977,-4.239 l 1.339,0 0,-0.914 -7.161,0 0,0.914 1.099,0 c 0.333,0 0.547,0.031 0.547,0.489 l 0,6.217 c 0,3.079 0,4.419 -1.037,4.419 l -1.279,0 0,0.916 c 1.829,0.152 3.689,0.273 5.515,0.517 l 0,-8.319 z"
               id="path9768"
               style="fill:#592C88;fill-opacity:1;fill-rule:nonzero;stroke:none" />
          </g>
          <g
             transform="translate(463.367,39.654)"
             id="g9770">
            <path
               d="M 0,0 C 0,0.946 0.762,1.645 1.676,1.645 2.622,1.645 3.382,0.946 3.382,0 3.382,-0.974 2.622,-1.645 1.676,-1.645 0.762,-1.645 0,-0.944 0,0 m 3.534,-11.62 c 0,-3.537 0.122,-4.239 0.977,-4.239 l 1.339,0 0,-0.914 -7.161,0 0,0.914 1.099,0 c 0.333,0 0.547,0.031 0.547,0.489 l 0,6.217 c 0,3.079 0,4.419 -1.037,4.419 l -1.279,0 0,0.916 c 1.829,0.152 3.689,0.273 5.515,0.517 l 0,-8.319 z"
               id="path9772"
               style="fill:none;stroke:#592C88;stroke-width:0.292;stroke-linecap:butt;stroke-linejoin:miter;stroke-miterlimit:4;stroke-opacity:1;stroke-dasharray:none" />
          </g>
          <g
             transform="translate(475.5349,34.1603)"
             id="g9774">
            <path
               d="m 0,0 c 1.646,1.217 3.141,2.192 4.784,2.192 2.408,0 3.689,-1.433 3.689,-4.205 l 0,-4.114 c 0,-3.536 0.122,-4.238 0.975,-4.238 l 1.159,0 0,-0.914 -6.736,0 0,0.914 0.853,0 c 0.334,0 0.548,0.031 0.548,0.488 l 0,6.34 c 0,2.071 0,3.81 -2.255,3.81 C 1.95,0.273 0.884,-0.308 0,-1.129 l 0,-4.998 c 0,-3.536 0.122,-4.238 0.974,-4.238 l 1.067,0 0,-0.914 -6.887,0 0,0.914 1.098,0 c 0.334,0 0.546,0.031 0.546,0.488 l 0,6.217 c 0,3.079 0,4.419 -1.034,4.419 l -1.282,0 0,0.915 C -3.688,1.827 -1.829,1.949 0,2.192 L 0,0 z"
               id="path9776"
               style="fill:#592C88;fill-opacity:1;fill-rule:nonzero;stroke:none" />
          </g>
          <g
             transform="translate(475.5349,34.1603)"
             id="g9778">
            <path
               d="m 0,0 c 1.646,1.217 3.141,2.192 4.784,2.192 2.408,0 3.689,-1.433 3.689,-4.205 l 0,-4.114 c 0,-3.536 0.122,-4.238 0.975,-4.238 l 1.159,0 0,-0.914 -6.736,0 0,0.914 0.853,0 c 0.334,0 0.548,0.031 0.548,0.488 l 0,6.34 c 0,2.071 0,3.81 -2.255,3.81 C 1.95,0.273 0.884,-0.308 0,-1.129 l 0,-4.998 c 0,-3.536 0.122,-4.238 0.974,-4.238 l 1.067,0 0,-0.914 -6.887,0 0,0.914 1.098,0 c 0.334,0 0.546,0.031 0.546,0.488 l 0,6.217 c 0,3.079 0,4.419 -1.034,4.419 l -1.282,0 0,0.915 C -3.688,1.827 -1.829,1.949 0,2.192 L 0,0 z"
               id="path9780"
               style="fill:none;stroke:#592C88;stroke-width:0.292;stroke-linecap:butt;stroke-linejoin:miter;stroke-miterlimit:4;stroke-opacity:1;stroke-dasharray:none" />
          </g>
          <g
             transform="translate(494.5248,30.0433)"
             id="g9782">
            <path
               d="m 0,0 -0.549,-0.213 c -1.768,-0.701 -3.749,-1.86 -3.749,-3.688 0,-0.913 0.487,-1.614 1.463,-1.614 1.098,0 2.104,0.701 2.835,1.493 L 0,0 z M 0,1.096 0,1.98 c 0,1.921 -0.062,3.08 -2.075,3.08 -0.698,0 -1.492,-0.214 -2.07,-0.61 0,-1.677 -0.732,-3.047 -2.073,-3.047 -0.548,0 -1.066,0.396 -1.066,0.975 0,2.408 4.083,3.931 6.796,3.931 3.383,0 3.687,-0.945 3.687,-4.267 l 0,-4.694 c 0,-2.378 0.366,-2.894 2.133,-3.198 L 4.144,-7.649 c -0.792,0 -2.957,0.09 -3.901,2.498 -1.25,-1.006 -3.17,-2.498 -4.876,-2.498 -1.767,0 -2.865,1.247 -2.865,2.985 0,2.958 3.717,4.207 5.943,5.121 L 0,1.096 z"
               id="path9784"
               style="fill:#592C88;fill-opacity:1;fill-rule:nonzero;stroke:none" />
          </g>
          <g
             transform="translate(494.5248,30.0433)"
             id="g9786">
            <path
               d="m 0,0 -0.549,-0.213 c -1.768,-0.701 -3.749,-1.86 -3.749,-3.688 0,-0.913 0.487,-1.614 1.463,-1.614 1.098,0 2.104,0.701 2.835,1.493 L 0,0 z M 0,1.096 0,1.98 c 0,1.921 -0.062,3.08 -2.075,3.08 -0.698,0 -1.492,-0.214 -2.07,-0.61 0,-1.677 -0.732,-3.047 -2.073,-3.047 -0.548,0 -1.066,0.396 -1.066,0.975 0,2.408 4.083,3.931 6.796,3.931 3.383,0 3.687,-0.945 3.687,-4.267 l 0,-4.694 c 0,-2.378 0.366,-2.894 2.133,-3.198 L 4.144,-7.649 c -0.792,0 -2.957,0.09 -3.901,2.498 -1.25,-1.006 -3.17,-2.498 -4.876,-2.498 -1.767,0 -2.865,1.247 -2.865,2.985 0,2.958 3.717,4.207 5.943,5.121 L 0,1.096 z"
               id="path9788"
               style="fill:none;stroke:#592C88;stroke-width:0.292;stroke-linecap:butt;stroke-linejoin:miter;stroke-miterlimit:4;stroke-opacity:1;stroke-dasharray:none" />
          </g>
          <g
             transform="translate(421.9277,62.4399)"
             id="g9790">
            <path
               d="m 0,0 1.57,0 0,1.727 -9.681,0 0,-1.727 2.616,0 c 1.202,0 1.414,-0.105 1.414,-0.785 0,-1.151 -1.675,-6.487 -4.239,-12.871 l -0.941,-2.362 -0.494,-1.237 -0.116,-0.288 -2.06,-5.167 -0.748,1.849 -0.002,0 -0.465,1.151 c 0.461,0.124 0.935,0.226 1.424,0.298 l 0.839,2.106 c -9.569,-0.667 -17.802,-7.296 -17.872,-17.509 -0.067,-10.243 7.886,-15.414 17.64,-15.478 3.774,-0.026 8.208,1.221 11.648,2.865 0.267,3.283 0.422,4.31 0.424,4.704 0.004,0.246 -0.191,0.54 -0.633,0.543 -0.587,0.004 -0.64,-0.439 -0.741,-0.878 -0.61,-3.33 -6.469,-5.253 -9.213,-5.235 -7.843,0.052 -13.187,7.067 -13.14,14.371 0.031,4.527 1.613,8.597 4.432,11.295 l 1.132,-2.786 2.344,-5.773 c 0.315,-0.784 0.472,-1.309 0.943,-1.309 0.417,0 0.68,0.525 0.889,1.049 l 4.196,10.92 0.46,1.199 c 2.799,-0.309 6.002,-1.576 6.294,-2.824 0.238,-0.981 0.109,-1.396 0.538,-1.503 0.309,-0.075 0.893,-0.491 1.265,3.871 -2.187,0.867 -4.874,2.022 -7.349,2.404 L -1.57,-1.622 C -1.047,-0.261 -0.89,0 0,0"
               id="path9792"
               style="fill:#592C88;fill-opacity:1;fill-rule:nonzero;stroke:none" />
          </g>
          <g
             transform="translate(421.9277,62.4399)"
             id="g9794">
            <path
               d="m 0,0 1.57,0 0,1.727 -9.681,0 0,-1.727 2.616,0 c 1.202,0 1.414,-0.105 1.414,-0.785 0,-1.151 -1.675,-6.487 -4.239,-12.871 l -0.941,-2.362 -0.494,-1.237 -0.116,-0.288 -2.06,-5.167 -0.748,1.849 -0.002,0 -0.465,1.151 c 0.461,0.124 0.935,0.226 1.424,0.298 l 0.839,2.106 c -9.569,-0.667 -17.802,-7.296 -17.872,-17.509 -0.067,-10.243 7.886,-15.414 17.64,-15.478 3.774,-0.026 8.208,1.221 11.648,2.865 0.267,3.283 0.422,4.31 0.424,4.704 0.004,0.246 -0.191,0.54 -0.633,0.543 -0.587,0.004 -0.64,-0.439 -0.741,-0.878 -0.61,-3.33 -6.469,-5.253 -9.213,-5.235 -7.843,0.052 -13.187,7.067 -13.14,14.371 0.031,4.527 1.613,8.597 4.432,11.295 l 1.132,-2.786 2.344,-5.773 c 0.315,-0.784 0.472,-1.309 0.943,-1.309 0.417,0 0.68,0.525 0.889,1.049 l 4.196,10.92 0.46,1.199 c 2.799,-0.309 6.002,-1.576 6.294,-2.824 0.238,-0.981 0.109,-1.396 0.538,-1.503 0.309,-0.075 0.893,-0.491 1.265,3.871 -2.187,0.867 -4.874,2.022 -7.349,2.404 L -1.57,-1.622 C -1.047,-0.261 -0.89,0 0,0 z"
               id="path9796"
               style="fill:none;stroke:#592C88;stroke-width:0.292;stroke-linecap:butt;stroke-linejoin:miter;stroke-miterlimit:4;stroke-opacity:1;stroke-dasharray:none" />
          </g>
          <g
             transform="translate(401.9529,43.8418)"
             id="g9798">
            <path
               d="m 0,0 c 1.726,0.911 3.599,1.591 5.56,2.023 l -3.638,8.988 c -0.315,0.733 -2.983,7.064 -2.983,7.274 0,0.26 0.209,0.313 0.627,0.313 l 3.088,0 0,1.727 -13.449,0 0,-1.727 1.571,0 c 1.361,0 1.518,0 4.289,-6.488 l -5.963,-15.855 -7.065,16.798 c -0.889,2.144 -2.094,4.813 -2.094,5.18 0,0.312 0.211,0.365 0.629,0.365 l 2.722,0 0,1.727 -12.821,0 0,-1.727 1.674,0 c 1.152,0 1.467,-0.053 3.611,-5.389 l 10.36,-25.902 c 0.315,-0.837 0.471,-1.205 0.943,-1.205 0.523,0 0.628,0.63 1.047,1.675 L -3.834,9.441 0,0 z"
               id="path9800"
               style="fill:#592C88;fill-opacity:1;fill-rule:nonzero;stroke:none" />
          </g>
          <g
             transform="translate(401.9529,43.8418)"
             id="g9802">
            <path
               d="m 0,0 c 1.726,0.911 3.599,1.591 5.56,2.023 l -3.638,8.988 c -0.315,0.733 -2.983,7.064 -2.983,7.274 0,0.26 0.209,0.313 0.627,0.313 l 3.088,0 0,1.727 -13.449,0 0,-1.727 1.571,0 c 1.361,0 1.518,0 4.289,-6.488 l -5.963,-15.855 -7.065,16.798 c -0.889,2.144 -2.094,4.813 -2.094,5.18 0,0.312 0.211,0.365 0.629,0.365 l 2.722,0 0,1.727 -12.821,0 0,-1.727 1.674,0 c 1.152,0 1.467,-0.053 3.611,-5.389 l 10.36,-25.902 c 0.315,-0.837 0.471,-1.205 0.943,-1.205 0.523,0 0.628,0.63 1.047,1.675 L -3.834,9.441 0,0 z"
               id="path9804"
               style="fill:none;stroke:#592C88;stroke-width:0.292;stroke-linecap:butt;stroke-linejoin:miter;stroke-miterlimit:4;stroke-opacity:1;stroke-dasharray:none" />
          </g>
          <g
             transform="translate(427.8326,18.9575)"
             id="g9806">
            <path
               d="m 0,0 1.02,0 0,-3.468 c 0,-0.765 0.274,-1.137 1.026,-1.137 0.797,0 1.064,0.349 1.064,1.137 L 3.11,0 4.1,0 4.1,-3.587 C 4.1,-4.813 3.362,-5.497 2.046,-5.497 0.662,-5.497 0,-4.813 0,-3.422 L 0,0 z"
               id="path9808"
               style="fill:#C1A875;fill-opacity:1;fill-rule:nonzero;stroke:none" />
          </g>
          <g
             transform="translate(436.168,18.9575)"
             id="g9810">
            <path
               d="M 0,0 1.086,0 2.641,-2.717 C 2.864,-3.11 3.073,-3.54 3.251,-4.01 3.198,-3.676 3.177,-3.311 3.177,-2.909 l 0,2.909 0.946,0 0,-5.409 -0.946,0 -1.69,2.791 c -0.171,0.289 -0.38,0.721 -0.609,1.3 0.052,-0.334 0.067,-0.697 0.067,-1.1 l 0,-2.991 L 0,-5.409 0,0 z"
               id="path9812"
               style="fill:#C1A875;fill-opacity:1;fill-rule:nonzero;stroke:none" />
          </g>
        </g>
      </g>
      <path
         d="m -63.666147,96.361808 1.2825,0 0,6.761252 -1.2825,0 0,-6.761252 z"
         id="path9814"
         style="fill:#C1A875;fill-opacity:1;fill-rule:nonzero;stroke:none" />
      <g
         transform="matrix(1.25,0,0,-1.25,-57.637517,96.361188)"
         id="g9816">
        <path
           d="M 0,0 1.019,0 2.254,-4.412 3.474,0 4.502,0 2.886,-5.409 1.615,-5.409 0,0 z"
           id="path9818"
           style="fill:#C1A875;fill-opacity:1;fill-rule:nonzero;stroke:none" />
      </g>
      <g
         transform="matrix(1.25,0,0,-1.25,-47.358902,96.361188)"
         id="g9820">
        <path
           d="m 0,0 3.511,0 0,-0.878 -2.499,0 0,-1.28 1.824,0 0,-0.863 -1.824,0 0,-1.464 2.612,0 0,-0.924 L 0,-5.409 0,0 z"
           id="path9822"
           style="fill:#C1A875;fill-opacity:1;fill-rule:nonzero;stroke:none" />
      </g>
      <g
         transform="matrix(1.25,0,0,-1.25,-619.4624,120.05806)"
         id="g9824">
        <g
           clip-path="url(#clipPath9828)"
           id="g9826">
          <g
             transform="translate(465.178,18.9575)"
             id="g9832">
            <path
               d="m 0,0 1.83,0 c 1.361,0 2.031,-0.514 2.031,-1.615 0,-0.707 -0.357,-1.191 -0.998,-1.369 l 1.198,-2.425 -1.093,0 -1.042,2.196 -0.93,0 0,-2.196 L 0,-5.409 0,0 z m 1.882,-2.358 c 0.648,0 0.952,0.23 0.952,0.751 0,0.528 -0.312,0.752 -0.952,0.752 l -0.886,0 0,-1.503 0.886,0 z"
               id="path9834"
               style="fill:#C1A875;fill-opacity:1;fill-rule:nonzero;stroke:none" />
          </g>
          <g
             transform="translate(473.7062,15.1778)"
             id="g9836">
            <path
               d="m 0,0 c 0.282,-0.573 0.617,-0.826 1.101,-0.826 0.551,0 0.877,0.275 0.877,0.685 0,0.364 -0.245,0.55 -0.803,0.759 -0.483,0.178 -0.931,0.326 -1.287,0.559 -0.41,0.26 -0.633,0.676 -0.633,1.189 0,0.856 0.693,1.473 1.764,1.473 0.923,0 1.541,-0.402 1.823,-1.182 L 1.919,2.321 C 1.696,2.797 1.407,3.013 0.945,3.013 0.498,3.013 0.23,2.79 0.23,2.44 0.23,1.935 0.758,1.845 1.614,1.48 2.514,1.1 2.96,0.751 2.96,-0.096 c 0,-0.984 -0.676,-1.608 -1.837,-1.608 -0.997,0 -1.696,0.448 -2.045,1.295 L 0,0 z"
               id="path9838"
               style="fill:#C1A875;fill-opacity:1;fill-rule:nonzero;stroke:none" />
          </g>
        </g>
      </g>
      <path
         d="m -18.594902,96.361808 1.285,0 0,6.761252 -1.285,0 0,-6.761252 z"
         id="path9840"
         style="fill:#C1A875;fill-opacity:1;fill-rule:nonzero;stroke:none" />
      <g
         transform="matrix(1.25,0,0,-1.25,-10.659652,97.476428)"
         id="g9842">
        <path
           d="m 0,0 -1.421,0 0,0.892 3.869,0 0,-0.892 -1.421,0 0,-4.517 L 0,-4.517 0,0 z"
           id="path9844"
           style="fill:#C1A875;fill-opacity:1;fill-rule:nonzero;stroke:none" />
      </g>
      <g
         transform="matrix(1.25,0,0,-1.25,-1.6267718,100.45269)"
         id="g9846">
        <path
           d="m 0,0 -1.569,3.273 1.071,0 1.041,-2.246 1.027,2.246 0.996,0 -1.547,-3.265 0,-2.144 L 0,-2.136 0,0 z"
           id="path9848"
           style="fill:#C1A875;fill-opacity:1;fill-rule:nonzero;stroke:none" />
      </g>
    </g>
  </g>
</svg>
